<?xml version="1.0" encoding="utf-8"?>
<!-- Generator: Adobe Illustrator 26.4.1, SVG Export Plug-In . SVG Version: 6.00 Build 0)  -->
<svg version="1.1" id="Слой_1" xmlns="http://www.w3.org/2000/svg" xmlns:xlink="http://www.w3.org/1999/xlink" x="0px" y="0px"
	 viewBox="0 0 20 20" style="enable-background:new 0 0 20 20;" xml:space="preserve">
<style type="text/css">
	.st0{fill:#392245;}
</style>
<g>
	<g>
		<path class="st0" d="M5.05,13.25c0.29-1.73,0.82-3.42,1.59-5c0.4-0.82,0.84-1.62,1.32-2.39c0.07-0.11,0.13-0.21,0.2-0.32
			c0.1-0.15,0.12-0.19,0.07-0.09C8.18,5.46,8.14,5.47,8.1,5.47C8.37,5.45,8.67,5.6,8.93,5.74c1.36,0.73,2.34,1.96,3.13,3.27
			c0.9,1.49,1.76,3.11,2.09,4.83c0.35-0.62,0.7-1.23,1.05-1.85c-2.26,0.64-4.56,1.14-6.89,1.44c-0.8,0.1-1.5,0.61-1.5,1.5
			c0,0.73,0.69,1.6,1.5,1.5c2.6-0.34,5.17-0.84,7.69-1.55c0.83-0.23,1.2-1.04,1.05-1.85c-0.4-2.09-1.5-4.17-2.65-5.95
			c-1.18-1.84-2.76-3.56-4.85-4.34C8.36,2.3,7.02,2.38,6.1,3.32C5.36,4.07,4.85,5.15,4.38,6.07c-1.04,2-1.85,4.14-2.22,6.38
			c-0.13,0.8,0.21,1.62,1.05,1.85C3.92,14.49,4.91,14.05,5.05,13.25L5.05,13.25z"/>
	</g>
</g>
</svg>
