<?xml version="1.0" encoding="utf-8"?>
<!-- Generator: Adobe Illustrator 26.4.1, SVG Export Plug-In . SVG Version: 6.00 Build 0)  -->
<svg version="1.1" id="Слой_1" xmlns="http://www.w3.org/2000/svg" xmlns:xlink="http://www.w3.org/1999/xlink" x="0px" y="0px"
	 viewBox="0 0 20 20" style="enable-background:new 0 0 20 20;" xml:space="preserve">
<style type="text/css">
	.st0{fill:#392245;}
</style>
<g>
	<g>
		<path class="st0" d="M9.97,17.82c-0.15-3.1-1.33-5.96-2.02-8.95C7.59,7.31,7.33,5.62,7.63,4.03c0.3-1.57,2.09-2.28,3.56-2.28
			c1.65-0.01,2.14,2.21,2.25,3.54c0.11,1.41-0.14,2.8-0.58,4.14c-0.99,3.02-2.72,5.84-4.16,8.66c-0.44,0.86,0.85,1.62,1.3,0.76
			c1.37-2.68,2.91-5.33,4-8.13c0.93-2.41,1.4-5.2,0.48-7.69c-0.41-1.1-1.02-2.26-2.22-2.62c-1.19-0.37-2.58,0-3.68,0.48
			C7.39,1.38,6.51,2.19,6.22,3.48c-0.32,1.41-0.22,2.9,0,4.31c0.53,3.4,2.09,6.57,2.26,10.03C8.52,18.78,10.02,18.79,9.97,17.82
			L9.97,17.82z"/>
	</g>
</g>
<g>
	<g>
		<path class="st0" d="M10.38,5.71c-0.04,0-0.08,0-0.12-0.01c0.07,0.01,0.13,0.02,0.2,0.03c-0.06-0.01-0.13-0.03-0.19-0.05
			c0.06,0.03,0.12,0.05,0.18,0.08c-0.06-0.03-0.12-0.06-0.17-0.09c-0.11-0.06,0.1,0.09,0.04,0.03c-0.02-0.02-0.05-0.05-0.07-0.07
			c-0.02-0.02-0.03-0.04-0.05-0.06c0.13,0.14,0.07,0.09,0.03,0.03c-0.04-0.06-0.07-0.13-0.11-0.2c0.03,0.06,0.05,0.12,0.08,0.18
			c-0.08-0.19-0.13-0.4-0.16-0.61c0.01,0.07,0.02,0.13,0.03,0.2c-0.02-0.13-0.02-0.26,0-0.39c-0.01,0.07-0.02,0.13-0.03,0.2
			c0.01-0.07,0.03-0.14,0.06-0.21c-0.03,0.06-0.05,0.12-0.08,0.18c0.02-0.05,0.05-0.1,0.08-0.15c0.03-0.04,0.03-0.04-0.02,0.02
			c-0.05,0.06-0.05,0.07-0.02,0.03c0.02-0.02,0.04-0.04,0.06-0.06c0.05-0.05,0.1-0.04-0.06,0.04c0.02-0.01,0.05-0.03,0.07-0.05
			c0.05-0.03,0.11-0.06,0.17-0.09c-0.06,0.03-0.12,0.05-0.18,0.08c0.13-0.05,0.27-0.09,0.4-0.11c-0.07,0.01-0.13,0.02-0.2,0.03
			c0.14-0.02,0.29-0.02,0.43,0c-0.07-0.01-0.13-0.02-0.2-0.03c0.09,0.01,0.17,0.04,0.26,0.07c-0.06-0.03-0.12-0.05-0.18-0.08
			c0.03,0.01,0.06,0.03,0.09,0.05c0.02,0.02,0.1,0.07,0-0.01c-0.11-0.08-0.02-0.01,0,0.01c0.02,0.02,0.09,0.11,0.01,0.01
			c-0.08-0.1-0.02-0.03-0.01,0c0.02,0.03,0.03,0.05,0.05,0.08c0.03,0.05,0.06,0.11,0.08,0.17c-0.03-0.06-0.05-0.12-0.08-0.18
			c0.07,0.16,0.13,0.33,0.16,0.49c-0.01-0.07-0.02-0.13-0.03-0.2c0.01,0.05,0.01,0.09,0,0.14c0.01-0.07,0.02-0.13,0.03-0.2
			c-0.01,0.04-0.02,0.08-0.03,0.11c0.03-0.06,0.05-0.12,0.08-0.18c-0.09,0.2-0.19,0.38-0.31,0.56c-0.05,0.06-0.03,0.05,0.04-0.05
			c-0.02,0.02-0.04,0.04-0.05,0.06c-0.03,0.03-0.06,0.05-0.08,0.08c-0.06,0.05-0.04,0.03,0.06-0.04c-0.02,0.02-0.04,0.03-0.06,0.04
			c-0.04,0.03-0.09,0.05-0.14,0.07c0.06-0.03,0.12-0.05,0.18-0.08c-0.06,0.02-0.12,0.04-0.18,0.05C10.27,5.68,10.07,5.86,9.99,6
			C9.9,6.16,9.86,6.4,9.92,6.58c0.06,0.18,0.17,0.36,0.34,0.45c0.19,0.1,0.37,0.11,0.58,0.08c0.76-0.11,1.27-0.89,1.52-1.56
			c0.14-0.38,0.02-0.79-0.13-1.14c-0.16-0.39-0.36-0.71-0.72-0.96C11.2,3.23,10.77,3.16,10.4,3.2c-0.35,0.03-0.68,0.11-0.99,0.29
			C9.12,3.64,8.86,3.9,8.73,4.2c-0.19,0.43-0.2,0.86-0.1,1.32c0.18,0.87,0.81,1.67,1.76,1.69c0.39,0.01,0.77-0.35,0.75-0.75
			C11.11,6.05,10.8,5.72,10.38,5.71L10.38,5.71z"/>
	</g>
</g>
</svg>
