<?xml version="1.0" encoding="utf-8"?>
<!-- Generator: Adobe Illustrator 26.4.1, SVG Export Plug-In . SVG Version: 6.00 Build 0)  -->
<svg version="1.1" id="Слой_1" xmlns="http://www.w3.org/2000/svg" xmlns:xlink="http://www.w3.org/1999/xlink" x="0px" y="0px"
	 viewBox="0 0 30 20" style="enable-background:new 0 0 30 20;" xml:space="preserve">
<style type="text/css">
	.st0{fill:#392245;}
</style>
<g>
	<g>
		<path class="st0" d="M1.84,3.97c7.92-0.19,15.82-0.14,23.74-0.06c1.93,0.02,1.93-2.98,0-3C17.67,0.83,9.76,0.78,1.84,0.97
			C-0.09,1.01-0.09,4.01,1.84,3.97L1.84,3.97z"/>
	</g>
</g>
<g>
	<g>
		<path class="st0" d="M2.73,11.87c7.71-1.53,15.61-1.28,23.41-2.03c1.9-0.18,1.92-3.19,0-3C18.07,7.62,9.91,7.39,1.93,8.98
			C0.04,9.36,0.84,12.25,2.73,11.87L2.73,11.87z"/>
	</g>
</g>
<g>
	<g>
		<path class="st0" d="M2.78,18.48c3.92,0.06,7.84,0.04,11.76-0.07c3.94-0.11,7.88-0.26,11.81,0.14c1.92,0.19,1.91-2.81,0-3
			c-3.93-0.39-7.87-0.25-11.81-0.14c-3.92,0.11-7.84,0.13-11.76,0.07C0.85,15.44,0.85,18.44,2.78,18.48L2.78,18.48z"/>
	</g>
</g>
</svg>
